<?xml version="1.0" encoding="utf-8"?>
<svg version="1.1" xmlns="http://www.w3.org/2000/svg" xmlns:xlink="http://www.w3.org/1999/xlink" height="91.00000000000023" width="109.00000000000182">
  <defs>
    <ellipse id="ellipse-1" opacity="1" rx="18.16666666666667" ry="18.079470198675494" cx="90.83333333333364" cy="18.079470198675494"/>
    <ellipse id="ellipse-2" opacity="1" rx="14.83611111111111" ry="14.764900662251655" cx="14.83611111111111" cy="44.294701986755406"/>
    <ellipse id="ellipse-3" opacity="1" rx="7.872222222222218" ry="7.834437086092713" cx="19.377777777777922" cy="66.89403973509954"/>
    <ellipse id="ellipse-4" opacity="1" rx="7.872222222222227" ry="7.834437086092716" cx="101.12777777777771" cy="43.390728476822204"/>
    <ellipse id="ellipse-5" opacity="1" rx="21.497222222222227" ry="21.394039735099337" cx="76.60277777777762" cy="69.60596026490089"/>
    <ellipse id="ellipse-6" opacity="1" rx="7.872222222222224" ry="7.834437086092715" cx="27.249999999999392" cy="10.245033112582826"/>
    <ellipse id="ellipse-7" opacity="1" rx="35.727777777777774" ry="35.556291390728504" cx="55.10555555555494" cy="43.39072847682057"/>
    <path id="path-8" opacity="1" fill-rule="evenodd" d="M48.1311814784934,41.72572283815202 C48.96671950168571,41.72572283815202 49.64507036738229,42.4040737038486 49.64507036738229,43.23961172704091 L49.64507036738229,52.47507839725681 C49.64507036738229,53.31061642044911 48.96671950168571,53.988967286145694 48.1311814784934,53.988967286145694 C47.2956434553011,53.988967286145694 46.61729258960452,53.310616420449115 46.61729258960452,52.47507839725681 L46.61729258960452,43.23961172704091 C46.61729258960452,42.4040737038486 47.2956434553011,41.72572283815202 48.1311814784934,41.72572283815202 L48.1311814784934,41.72572283815202Z"/>
    <path id="path-9" opacity="1" fill-rule="evenodd" d="M58.31391717566359,31.428352403686404 C59.1494551988559,31.428352403686404 59.82780606455248,32.10670326938299 59.82780606455248,32.94224129257529 L59.82780606455248,53.839215661068096 C59.82780606455248,54.6747536842604 59.1494551988559,55.35310454995698 58.31391717566359,55.35310454995698 C57.47837915247129,55.35310454995698 56.800028286774705,54.6747536842604 56.800028286774705,53.839215661068096 L56.800028286774705,32.94224129257529 C56.800028286774705,32.10670326938299 57.47837915247129,31.428352403686404 58.31391717566359,31.428352403686404 L58.31391717566359,31.428352403686404Z"/>
  </defs>
  <g opacity="1">
    <g opacity="1">
      <g opacity="1">
        <use xlink:href="#ellipse-1" fill="rgb(143,230,155)" fill-opacity="0.35"/>
      </g>
      <g opacity="1">
        <use xlink:href="#ellipse-2" fill="rgb(143,230,155)" fill-opacity="0.35"/>
      </g>
      <g opacity="1">
        <use xlink:href="#ellipse-3" fill="rgb(143,230,155)" fill-opacity="0.35"/>
      </g>
      <g opacity="1">
        <use xlink:href="#ellipse-4" fill="rgb(143,230,155)" fill-opacity="0.35"/>
      </g>
      <g opacity="1">
        <use xlink:href="#ellipse-5" fill="rgb(143,230,155)" fill-opacity="0.35"/>
      </g>
      <g opacity="1">
        <use xlink:href="#ellipse-6" fill="rgb(143,230,155)" fill-opacity="0.35"/>
      </g>
      <g opacity="1">
        <g opacity="1">
          <use xlink:href="#ellipse-7" fill="rgb(143,230,155)" fill-opacity="1"/>
        </g>
      </g>
    </g>
    <g opacity="1">
      <g transform="translate(48.1311814784934, 47.85734506214886) rotate(-40.00001430256668) translate(-48.1311814784934, -47.85734506214886)" opacity="1">
        <use xlink:href="#path-8" fill="rgb(255,255,255)" fill-opacity="1"/>
      </g>
      <g transform="translate(58.31391717566359, 43.39072847682169) rotate(40.00001430256668) translate(-58.31391717566359, -43.39072847682169)" opacity="1">
        <use xlink:href="#path-9" fill="rgb(255,255,255)" fill-opacity="1"/>
      </g>
    </g>
  </g>
</svg>